<svg width="294" height="293" viewBox="0 0 294 293" fill="none" xmlns="http://www.w3.org/2000/svg">
<path fill-rule="evenodd" clip-rule="evenodd" d="M148.383 8.12986C152.568 17.9569 153.547 18.1639 166.418 11.9449C171.615 9.43386 176.314 7.37986 176.862 7.37986C178.53 7.37986 181 4.35286 181 2.30886C181 1.24786 180.339 0.379865 179.531 0.379865C178.664 0.379865 178.289 0.968864 178.616 1.82086C178.992 2.80186 177.559 4.07586 174.117 5.82086C167.633 9.10586 167.631 9.10586 165.5 4.37986C162.772 -1.67014 160.959 -1.35613 163.5 4.72586C165.571 9.68086 165.559 9.70986 160.473 12.1809C154.297 15.1809 154.471 15.2649 150.5 7.37986C145.749 -2.05414 144.269 -1.53014 148.383 8.12986ZM253 2.30886C253 6.70086 255.28 7.37986 270.036 7.37986C284.775 7.37986 286 6.96286 286 1.94586C286 -0.475136 284.179 0.0968645 283.82 2.62986C283.533 4.65086 282.864 4.90986 277.25 5.17786C271.141 5.46886 271 5.41786 271 2.92786C271 1.32986 270.441 0.379865 269.5 0.379865C268.611 0.379865 268.001 1.29586 268.002 2.62986C268.004 4.75086 267.66 4.86086 262.002 4.54086C256.878 4.25186 256 3.92286 256 2.29086C256 1.23986 255.325 0.379865 254.5 0.379865C253.675 0.379865 253 1.24786 253 2.30886ZM18.2 13.5799C16.637 15.1429 16.664 18.0459 18.25 19.0649C19.055 19.5809 18.254 20.0469 16 20.3739L12.5 20.8799L12.822 30.3799C13.305 44.5999 12.129 43.4869 26.327 43.1599L38.5 42.8799L39.065 35.8799C39.376 32.0299 39.988 28.0909 40.423 27.1279C42.074 23.4779 40.26 20.3799 36.472 20.3799C33.231 20.3799 33.072 20.2369 34.234 18.3769C36.902 14.1049 31.68 10.6999 28.041 14.3389L25.96 16.4199L23.791 14.3999C21.305 12.0839 19.902 11.8779 18.2 13.5799ZM57.729 14.5119C56.778 15.0439 56 16.1319 56 16.9299C56 17.7269 55.357 18.3799 54.571 18.3799C53.786 18.3799 52.381 19.1419 51.45 20.0729C49.86 21.6629 49.882 21.8659 51.81 23.4269C53.731 24.9829 53.755 25.1959 52.184 26.7679C50.613 28.3389 50.856 28.7599 56.003 33.3699C62.888 39.5359 63.234 39.5249 70.392 32.8819L76.283 27.4149L73.593 24.1469C72.114 22.3499 70.138 19.6449 69.202 18.1359C67.495 15.3839 64.656 14.5099 63.5 16.3799C62.58 17.8679 61 17.5889 61 15.9389C61 13.9189 59.757 13.3769 57.729 14.5119ZM110.785 16.1929C108.978 17.7399 105.362 20.2339 102.75 21.7349C97.266 24.8859 96.868 26.6259 100.364 32.1639C101.664 34.2229 103.921 38.2639 105.38 41.1439C108.466 47.2329 109.113 47.3609 116.908 43.4259C120.126 41.8019 123.024 40.7379 123.348 41.0619C123.672 41.3859 125.119 40.8769 126.563 39.9309C129.115 38.2579 129.247 37.3499 127.537 33.2099C127.029 31.9809 127.435 31.4519 129.071 31.2099C133.923 30.4909 133.246 23.3799 128.326 23.3799C127.384 23.3799 127.149 22.6349 127.566 20.9729C128.907 15.6309 124.705 12.6339 121.179 16.4179L119.28 18.4559L117.617 15.9179C115.516 12.7119 114.818 12.7399 110.785 16.1929ZM23.8 16.5799C25.441 18.2209 25.311 20.3799 23.571 20.3799C21.97 20.3799 19 17.7349 19 16.3089C19 14.9729 22.384 15.1639 23.8 16.5799ZM33 16.3089C33 17.7349 30.03 20.3799 28.429 20.3799C26.689 20.3799 26.559 18.2209 28.2 16.5799C29.616 15.1639 33 14.9729 33 16.3089ZM60 17.3209C60 18.3889 59.55 19.5399 59 19.8799C58.433 20.2309 58 19.3899 58 17.9389C58 16.5319 58.45 15.3799 59 15.3799C59.55 15.3799 60 16.2529 60 17.3209ZM118.891 21.5709C121.056 25.2049 121.06 25.2769 119.133 26.3089C117.433 27.2189 116.836 26.7759 114.588 22.9399C111.683 17.9819 111.443 16.7529 113.25 16.0829C114.765 15.5209 116.005 16.7269 118.891 21.5709ZM64.874 21.0099C62.552 23.4049 61.394 24.0179 60.85 23.1369C59.828 21.4839 64.774 16.3559 66.682 17.0879C67.791 17.5139 67.364 18.4409 64.874 21.0099ZM125 19.2579C125 23.0119 122.45 25.3719 121.529 22.4699C120.841 20.3019 122.455 16.3799 124.035 16.3799C124.566 16.3799 125 17.6749 125 19.2579ZM185.25 20.1439C178.029 24.3809 178.088 24.1609 181.905 32.6689C185.491 40.6609 185.847 40.8829 191.185 38.4549C193.558 37.3749 196.744 36.2319 198.263 35.9139C200.619 35.4199 200.935 34.9699 200.405 32.8579C199.952 31.0529 200.187 30.3799 201.269 30.3799C204.377 30.3799 205.233 27.7099 202.759 25.7319C201.461 24.6939 200.601 23.0899 200.804 22.0819C201.353 19.3489 199.166 17.2209 197 18.3799C195.718 19.0659 194.862 18.9179 193.983 17.8589C192.376 15.9229 192.498 15.8909 185.25 20.1439ZM193.799 21.7009C195.312 25.8839 195.301 26.3799 193.701 26.3799C192.603 26.3799 190 21.2309 190 19.0589C190 16.9499 192.78 18.8839 193.799 21.7009ZM115 27.8959C115 28.4249 105.023 34.3799 104.137 34.3799C102.987 34.3799 99.534 26.5129 100.333 25.7139C100.688 25.3579 103.117 23.8429 105.729 22.3469L110.48 19.6259L112.74 23.6049C113.983 25.7939 115 27.7249 115 27.8959ZM198.094 23.6859C197.302 24.4779 197 24.2179 197 22.7469C197 20.1029 198.398 18.6999 198.844 20.8969C199.033 21.8289 198.695 23.0849 198.094 23.6859ZM56.435 21.2749C57.099 22.3499 54.202 23.6229 52.91 22.8239C52.409 22.5149 52 21.8389 52 21.3209C52 20.1229 55.699 20.0839 56.435 21.2749ZM71.598 29.2049L69.304 31.5299L66.031 28.2569L62.758 24.9849L65.411 22.7029L68.064 20.4209L70.978 23.6499L73.892 26.8799L71.598 29.2049ZM190.025 23.9449C191.338 27.3999 191.474 27.1549 187.27 28.9119C183.819 30.3539 183.444 30.3399 182.27 28.7339C180.257 25.9819 180.778 23.8539 183.75 22.6789C188.02 20.9919 188.975 21.1849 190.025 23.9449ZM25 24.2709C25 25.6629 24.144 26.2559 21.75 26.5209C16.386 27.1139 14 26.4329 14 24.3099C14 22.6369 14.733 22.3799 19.5 22.3799C24.227 22.3799 25 22.6459 25 24.2709ZM38.814 24.6299C39.101 26.1409 38.318 26.3799 33.073 26.3799C27.617 26.3799 27 26.1719 27 24.3299C27 21.4849 38.269 21.7709 38.814 24.6299ZM57.479 27.8349C55.493 29.4319 54.167 29.8969 53.5 29.2309C52.833 28.5639 53.493 27.4319 55.479 25.8349C57.466 24.2379 58.792 23.7719 59.459 24.4389C60.126 25.1059 59.466 26.2379 57.479 27.8349ZM271.411 26.8799C271.925 28.9279 271.673 29.3799 270.019 29.3799C267.797 29.3799 267.771 29.4839 267.964 37.3799C268.19 46.5699 267.988 46.3799 277.508 46.3799C282.114 46.3799 286.085 46.0429 286.333 45.6299C286.581 45.2169 286.945 41.5049 287.142 37.3799C287.476 30.3869 287.358 29.8599 285.398 29.5799C283.757 29.3459 283.399 28.7429 283.765 26.8299C284.157 24.7769 283.842 24.3799 281.817 24.3799C280.487 24.3799 278.911 24.8689 278.313 25.4669C277.53 26.2499 277.038 26.2499 276.554 25.4669C276.184 24.8689 274.735 24.3799 273.333 24.3799C271.113 24.3799 270.864 24.7029 271.411 26.8799ZM130.554 26.4669C130.923 27.0649 130.737 28.0429 130.14 28.6399C128.884 29.8959 124 28.1149 124 26.4009C124 25.0319 129.702 25.0899 130.554 26.4669ZM201.782 27.2259C202.069 28.0859 201.588 28.4459 200.448 28.2259C199.468 28.0349 198.464 27.2749 198.218 26.5339C197.931 25.6739 198.412 25.3139 199.552 25.5339C200.532 25.7249 201.536 26.4849 201.782 27.2259ZM276.02 26.9039C276.716 27.7419 277.007 28.7069 276.667 29.0469C275.94 29.7729 273 27.5359 273 26.2579C273 24.8799 274.63 25.2289 276.02 26.9039ZM283 26.1799C283 27.2149 280.835 29.3799 279.8 29.3799C278.508 29.3799 278.884 26.5939 280.25 26.0419C282.178 25.2639 283 25.3049 283 26.1799ZM65.408 35.2109L62.7 37.5419L59.648 34.4899L56.597 31.4379L58.986 28.8949L61.375 26.3519L64.745 29.6159L68.115 32.8799L65.408 35.2109ZM124.406 31.9899C127.018 36.6629 127.033 38.3799 124.461 38.3799C122.707 38.3799 118.66 30.7079 119.399 28.7829C120.337 26.3379 121.753 27.2449 124.406 31.9899ZM197.902 30.5289C199.271 34.4549 199.28 35.3799 197.949 35.3799C197.064 35.3799 194 29.5859 194 27.9119C194 25.9449 197.007 27.9609 197.902 30.5289ZM25 35.3799V42.3799H20.607C15.555 42.3799 15 41.5959 15 34.4649C15 28.6499 15.251 28.3799 20.667 28.3799H25V35.3799ZM36.796 35.1299L36.5 41.8799L31.75 42.1849L27 42.4899V36.1009C27 28.5129 27.098 28.3799 32.712 28.3799H37.091L36.796 35.1299ZM193.538 32.6319C194.537 36.6759 188.491 39.4669 185.75 36.2269C183.288 33.3159 183.508 32.6829 187.75 30.4849C191.884 28.3419 192.539 28.5849 193.538 32.6319ZM226.479 31.0439C225.357 32.1659 225 33.6309 225.383 35.5439C226.005 38.6529 225.476 38.8909 221.392 37.3389C217.712 35.9399 215.842 37.8839 215.418 43.5519C215.239 45.9409 213.956 50.9159 212.566 54.6079C208.964 64.1769 208.502 63.6909 227.67 70.4839C239.397 74.6409 239.342 74.6569 242.571 66.1299C244.081 62.1429 246.37 57.6079 247.658 56.0529C251.466 51.4569 250.838 47.7119 246.019 46.2669L242.037 45.0749L244.586 42.7119C249.138 38.4939 247.632 35.8569 240.75 35.9959C237.588 36.0599 235 35.7019 235 35.2009C235 33.9819 230.348 29.3799 229.117 29.3799C228.581 29.3799 227.394 30.1289 226.479 31.0439ZM118.917 34.4459C120.174 36.6819 121.044 38.6459 120.851 38.8109C118.908 40.4699 111.725 44.3799 110.619 44.3799C108.85 44.3799 104.599 37.3809 105.699 36.2809C106.586 35.3939 115.164 30.5729 116.066 30.4539C116.377 30.4129 117.66 32.2099 118.917 34.4459ZM277 32.8799C277 33.9629 275.889 34.3799 273 34.3799C270.111 34.3799 269 33.9629 269 32.8799C269 31.7969 270.111 31.3799 273 31.3799C275.889 31.3799 277 31.7969 277 32.8799ZM286.75 32.6299C286.513 33.3399 284.678 33.8799 282.5 33.8799C280.322 33.8799 278.487 33.3399 278.25 32.6299C277.956 31.7489 279.211 31.3799 282.5 31.3799C285.789 31.3799 287.044 31.7489 286.75 32.6299ZM231.337 33.6369C233.493 35.2129 234.095 40.8799 232.108 40.8799C230.105 40.8799 226.616 35.8229 227.332 33.9579C228.063 32.0519 229.06 31.9719 231.337 33.6369ZM277 39.8799C277 44.3559 276.981 44.3799 273.5 44.3799C270.019 44.3799 270 44.3559 270 39.8799C270 35.4039 270.019 35.3799 273.5 35.3799C276.981 35.3799 277 35.4039 277 39.8799ZM286 39.8799V44.3799H282H278V39.8799V35.3799H282H286V39.8799ZM244 39.0199C244 41.1209 241.126 43.3069 238.309 43.3479C235.164 43.3939 234.609 41.7709 236.964 39.4159C239.462 36.9179 244 36.6619 244 39.0199ZM226.147 41.5139C231.945 43.6279 232.782 44.5969 231.101 47.2499C230.159 48.7369 217 45.1259 217 43.3799C217 39.0099 218.461 38.7109 226.147 41.5139ZM242.75 47.6159C247.98 49.6499 248.75 50.6469 247.101 53.2499C246.215 54.6499 232.98 51.1719 233.014 49.5479C233.075 46.5339 234.436 44.3369 235.881 44.9209C236.772 45.2799 239.863 46.4929 242.75 47.6159ZM157.12 46.2849C156.243 46.8399 155.907 48.2909 156.197 50.2689C156.586 52.9179 156.338 53.3799 154.527 53.3799C150.762 53.3799 148.083 59.0769 151 60.8799C151.55 61.2199 152 64.6059 152 68.4039C152 76.9879 152.568 77.3799 165 77.3799C177.316 77.3799 178 76.9299 178 68.8309C178 65.2679 178.537 61.4919 179.194 60.4409C181.149 57.3099 178.807 53.3799 174.986 53.3799C172.24 53.3799 172.038 53.1769 173 51.3799C175.578 46.5629 170.472 44.0379 166 47.9179C164.752 48.9999 164.103 48.8959 162.139 47.2999C159.482 45.1389 159.063 45.0539 157.12 46.2849ZM224.116 49.1149C229.775 51.1249 229.613 50.5659 226.877 58.6259C224.128 66.7209 224.224 66.6509 218.761 64.5779C212.346 62.1429 212.388 62.2589 215.068 54.3879C217.736 46.5499 217.417 46.7359 224.116 49.1149ZM162.429 49.9509C163.293 50.8159 164 51.9719 164 52.5209C164 54.3219 159.762 52.9299 158.243 50.6299C156.865 48.5449 156.906 48.3799 158.807 48.3799C159.934 48.3799 161.564 49.0869 162.429 49.9509ZM172 49.3089C172 50.7349 169.03 53.3799 167.429 53.3799C165.689 53.3799 165.559 51.2209 167.2 49.5799C168.616 48.1639 172 47.9729 172 49.3089ZM76.074 52.7909C75.389 53.6169 75.137 54.7919 75.515 55.4039C75.911 56.0449 75.313 56.7469 74.101 57.0639C71.715 57.6879 71.668 57.8719 71.98 65.3799C72.337 73.9699 72.789 74.3799 81.913 74.3799C91.347 74.3799 91.673 74.0769 92.143 64.8799C92.478 58.3109 92.365 57.8609 90.31 57.5679C88.778 57.3499 88.028 56.4499 87.81 54.5679C87.573 52.5129 87.029 51.9559 85.5 52.2039C82.127 52.7509 80.567 52.6979 78.91 51.9789C77.981 51.5759 76.803 51.9129 76.074 52.7909ZM238.75 54.3529C243.607 56.5579 243.772 57.3339 240.928 64.5929C238.157 71.6659 237.964 71.7869 232.45 69.9149C225.723 67.6309 225.843 67.8479 228.132 62.0899C229.272 59.2239 230.597 55.8669 231.077 54.6299C232.137 51.8999 233.257 51.8599 238.75 54.3529ZM80.39 54.9529C80.81 56.0489 80.489 56.4279 79.329 56.2029C78.414 56.0249 77.478 55.3179 77.25 54.6299C76.637 52.7909 79.68 53.1039 80.39 54.9529ZM87 54.4109C87 55.6089 84.179 56.8929 83.357 56.0699C82.481 55.1939 83.966 53.3799 85.559 53.3799C86.352 53.3799 87 53.8439 87 54.4109ZM164 57.8799C164 60.2389 163.694 60.3799 158.583 60.3799C155.149 60.3799 153.007 59.9219 152.731 59.1299C151.76 56.3479 153.276 55.3799 158.607 55.3799C163.693 55.3799 164 55.5219 164 57.8799ZM177 57.8799C177 60.2439 176.7 60.3799 171.5 60.3799C166.833 60.3799 166 60.1019 166 58.5469C166 55.8199 166.856 55.3799 172.167 55.3799C176.656 55.3799 177 55.5579 177 57.8799ZM81 60.0929C81 60.9279 79.595 61.3799 77 61.3799C72.735 61.3799 71.493 59.7819 75.25 59.1269C79.14 58.4489 81 58.7609 81 60.0929ZM89.75 59.2519C92.896 59.5739 90.561 61.3799 87 61.3799C84.8 61.3799 83 61.0049 83 60.5469C83 59.1329 83.964 58.6459 86.279 58.8899C87.5 59.0189 89.063 59.1819 89.75 59.2519ZM164 68.2999V75.2189L159.25 75.0499L154.5 74.8799L154.204 68.1299L153.909 61.3799H158.954H164V68.2999ZM175.796 68.1299L175.5 74.8799H171H166.5L166.204 68.1299L165.909 61.3799H171H176.091L175.796 68.1299ZM267.38 63.8329C266.941 64.9769 266.434 65.0429 264.992 64.1429C263.04 62.9239 260 64.4869 260 66.7099C260 67.3069 258.332 69.5039 256.292 71.5929L252.585 75.3899L257.542 80.4599C264.963 88.0499 265.557 88.2189 269.903 83.9749C271.928 81.9979 274.098 80.3799 274.725 80.3799C276.387 80.3799 277.35 76.5059 276.07 74.9649C275.258 73.9869 275.366 73.3209 276.488 72.3899C278.725 70.5329 278.325 68.4999 275.587 67.8119C274.149 67.4519 272.928 66.2309 272.568 64.7929C271.889 62.0889 268.304 61.4249 267.38 63.8329ZM81 67.9429C81 72.4889 80.988 72.5059 77.75 72.1929C74.699 71.8989 74.481 71.6189 74.193 67.6299L73.885 63.3799H77.443C80.999 63.3799 81 63.3809 81 67.9429ZM90 67.8799C90 72.3559 89.981 72.3799 86.5 72.3799C83.019 72.3799 83 72.3559 83 67.8799C83 63.4039 83.019 63.3799 86.5 63.3799C89.981 63.3799 90 63.4039 90 67.8799ZM271 66.4389C271 67.5069 270.55 68.3799 270 68.3799C269.45 68.3799 269 67.2279 269 65.8209C269 64.3699 269.433 63.5289 270 63.8799C270.55 64.2199 271 65.3709 271 66.4389ZM26.577 73.8799C22.96 79.1039 20 83.8239 20 84.3669C20 84.9099 21.719 86.4399 23.82 87.7659C25.921 89.0919 29.388 92.0229 31.526 94.2789C36.059 99.0619 37.347 99.3059 39.636 95.8129L41.318 93.2459L43.56 96.0579C45.776 98.8369 45.826 98.8479 47.901 96.9699C49.096 95.8879 50 93.8449 50 92.2249C50 90.5079 50.534 89.3799 51.345 89.3799C56.242 89.3799 56.913 82.2679 52.084 81.5519C49.996 81.2419 49.959 81.0919 51.425 78.8539C53.546 75.6179 52.591 73.8339 47.689 71.8719C45.403 70.9569 41.749 68.8979 39.569 67.2949C37.389 65.6919 35.054 64.3799 34.38 64.3799C33.706 64.3799 30.195 68.6549 26.577 73.8799ZM266.479 67.8859C268.56 69.5869 269.142 70.6379 268.409 71.3709C267.217 72.5629 262 68.6779 262 66.5979C262 64.8219 263.125 65.1449 266.479 67.8859ZM43.213 72.1659C44.73 73.4559 44.766 73.9319 43.529 76.3239C40.819 81.5649 39.563 81.8639 34.6 78.4489C28.788 74.4499 28.818 74.5349 31.666 70.0779L34.095 66.2759L37.798 68.4929C39.834 69.7119 42.271 71.3649 43.213 72.1659ZM263.82 71.6889L265.99 73.9979L262.682 77.2029L259.375 80.4079L257.007 77.8879L254.639 75.3669L257.506 72.3729C260.951 68.7779 261.073 68.7649 263.82 71.6889ZM276.5 70.3799C276.16 70.9299 275.009 71.3799 273.941 71.3799C272.873 71.3799 272 70.9299 272 70.3799C272 69.8299 273.152 69.3799 274.559 69.3799C276.01 69.3799 276.851 69.8129 276.5 70.3799ZM115.223 71.9369C113.552 73.1069 113 74.4929 113 77.5199C113 79.7349 112.662 81.3729 112.25 81.1609C107.523 78.7269 103.511 77.3539 102.389 77.7839C100.444 78.5309 96.898 84.6189 97.491 86.1929C98.042 87.6569 96.423 91.1439 91.298 99.5239C85.8 108.515 86.271 109.465 100.5 118.098C122.276 131.31 121.26 131.298 128.771 118.418C131.67 113.447 134.671 109.38 135.439 109.38C137.691 109.38 141.296 102.697 140.582 99.8489C140.241 98.4909 139.633 97.3779 139.231 97.3759C138.829 97.3739 136.973 96.4409 135.106 95.3029L131.711 93.2339L134.792 91.3599C142.421 86.7209 140.702 80.8799 131.707 80.8799C126.145 80.8799 125.957 80.7899 124.921 77.6459C123.978 74.7829 119.837 70.3799 118.088 70.3799C117.734 70.3799 116.445 71.0809 115.223 71.9369ZM273.686 74.5539C276.251 76.9639 276.653 78.3969 274.75 78.3469C273.081 78.3019 269 74.8409 269 73.4699C269 71.7069 271.196 72.2149 273.686 74.5539ZM120.267 75.1299C123.694 78.9329 123.15 87.1419 119.562 85.7659C117.253 84.8789 114.795 77.6309 116.025 75.3339C117.315 72.9229 118.238 72.8789 120.267 75.1299ZM49.829 75.2529C51.609 76.3809 45.387 85.4659 43.366 84.6899C41.177 83.8499 42.196 80.2429 45.783 76.1299C47.504 74.1569 47.949 74.0609 49.829 75.2529ZM269.904 77.4479L272.308 79.4499L269.467 82.4149C266.104 85.9239 265.581 85.9999 262.77 83.3809L260.624 81.3809L263.499 78.3809C266.875 74.8579 266.805 74.8679 269.904 77.4479ZM31.785 78.7439C37.963 82.6439 38.336 83.5409 35.413 87.4599C32.531 91.3239 32.391 91.3289 26.957 87.7329C22.456 84.7539 22.149 83.3829 25.068 79.2839C27.553 75.7949 27.162 75.8259 31.785 78.7439ZM110.235 83.5259C121.054 89.9899 120.138 88.9739 118.207 92.3679C116.505 95.3589 114.627 96.2029 113.55 94.4609C113.238 93.9559 110.061 91.9089 106.491 89.9119C99.192 85.8299 99.431 86.1769 101.615 82.8449C103.661 79.7219 103.9 79.7409 110.235 83.5259ZM53.5 85.3939C53.5 86.3399 52.318 86.9939 50.25 87.1929C46.726 87.5329 45.945 86.1019 48.75 84.4469C51.083 83.0699 53.5 83.5519 53.5 85.3939ZM136.444 84.2899C138.398 87.4499 131.102 91.1299 126.415 89.3479C123.411 88.2059 123.356 86.9439 126.223 84.9369C128.63 83.2499 135.532 82.8129 136.444 84.2899ZM42.527 86.4239C43.16 87.4479 42.083 89.3829 38.1 94.3799C35.807 97.2579 33.341 96.0329 34.442 92.5629C36.059 87.4679 40.9 83.7919 42.527 86.4239ZM221.057 86.3239C219.882 87.0669 219.835 87.7219 220.801 89.8419C222.062 92.6099 221.83 92.8739 217.5 93.5959C215.876 93.8669 215.556 94.5829 215.796 97.4049C215.959 99.3159 216.338 104.029 216.638 107.878C216.938 111.726 217.705 115.207 218.342 115.612C218.979 116.018 224.322 116.356 230.215 116.365C242.812 116.383 243.432 115.908 242.392 107.055C241.973 103.495 242.139 101.412 242.878 100.955C245.562 99.2969 243.787 93.2169 240.5 92.8089C239.95 92.7399 238.922 92.6159 238.215 92.5319C237.229 92.4159 237.187 91.8989 238.034 90.3159C240.201 86.2669 235.6 83.8709 231.36 86.8409C229.55 88.1079 229.025 88.1119 227.387 86.8719C225.198 85.2149 223.097 85.0329 221.057 86.3239ZM226.8 88.5799C228.54 90.3199 228.271 92.5799 226.369 92.2029C225.473 92.0249 224.068 90.8669 223.248 89.6299C221.875 87.5599 221.91 87.3799 223.678 87.3799C224.735 87.3799 226.14 87.9199 226.8 88.5799ZM236 88.6799C236 90.3519 233.972 92.3799 232.3 92.3799C230.669 92.3799 230.611 90.1689 232.2 88.5799C233.789 86.9909 236 87.0489 236 88.6799ZM47.035 91.3799C47.422 94.2539 46.99 95.3799 45.5 95.3799C43.96 95.3799 43.319 90.3939 44.683 89.0299C45.539 88.1739 46.768 89.4019 47.035 91.3799ZM107.744 93.9799C115.291 98.1999 115.282 98.0189 108.464 108.782L103.717 116.276L99.608 114.197C92.525 110.613 90.028 108.474 90.735 106.594C91.744 103.909 100.083 90.3799 100.729 90.3799C101.047 90.3799 104.204 91.9999 107.744 93.9799ZM180.122 91.6579C179.505 92.2749 179 93.5899 179 94.5799C179 95.8389 178.24 96.3799 176.469 96.3799C173.246 96.3799 172.034 99.1999 174.486 100.993C175.943 102.059 176.059 102.604 175.079 103.785C173.621 105.542 175.245 109.38 177.446 109.38C178.203 109.38 179.88 110.637 181.173 112.174C185.136 116.884 185.625 116.844 192.006 111.293C198.822 105.365 199.204 103.908 195 99.8799C193.35 98.2989 192 96.4699 192 95.8149C192 93.4489 189.003 91.8969 186.932 93.1899C184.48 94.7219 184 94.6889 184 92.9869C184 91.1139 181.517 90.2629 180.122 91.6579ZM131.733 96.1839C138.129 99.9769 139.031 101.588 136.61 104.899C135.087 106.982 134.433 106.796 126.866 102.124C118.249 96.8029 118.482 97.0999 120.498 94.0239C122.565 90.8689 122.87 90.9279 131.733 96.1839ZM182.6 95.9799C182.156 97.1359 181.601 97.3809 180.934 96.7139C180.384 96.1639 180.234 94.9339 180.6 93.9799C181.044 92.8239 181.599 92.5789 182.266 93.2459C182.816 93.7959 182.966 95.0259 182.6 95.9799ZM190 95.0659C190 96.3239 185.67 100.38 184.326 100.38C182.441 100.38 182.677 99.3519 185.174 96.6939C187.23 94.5059 190 93.5709 190 95.0659ZM228.324 96.7819C229.149 98.9329 228.119 99.3799 222.333 99.3799C217.667 99.3799 217 99.1299 217 97.3799C217 94.8659 227.379 94.3179 228.324 96.7819ZM242 97.3799C242 99.1379 241.333 99.3799 236.5 99.3799C231.667 99.3799 231 99.1379 231 97.3799C231 95.6219 231.667 95.3799 236.5 95.3799C241.333 95.3799 242 95.6219 242 97.3799ZM179.457 98.3109C179.774 98.8229 179.554 99.5379 178.968 99.8999C177.488 100.814 174.736 99.6159 175.496 98.3869C176.277 97.1219 178.694 97.0759 179.457 98.3109ZM196.969 104.326C196.951 104.631 195.789 105.716 194.387 106.739C191.855 108.583 191.815 108.577 188.962 105.844L186.088 103.09L188.294 100.345L190.5 97.5999L193.75 100.686C195.537 102.384 196.986 104.022 196.969 104.326ZM0 102.047C0 102.963 0.301 103.412 0.669 103.044C1.913 101.8 5 105.671 5 108.476C5 111.952 3.644 112.881 1.581 110.818C0.14 109.377 0 109.388 0 110.948C0 111.889 0.763 113.217 1.694 113.899C3.287 115.063 3.287 115.293 1.694 117.724C-0.344 120.834 -0.577 124.538 1.312 123.814C2.751 123.262 12 128.06 12 129.359C12 129.803 10.504 132.802 8.676 136.023C5.83 141.037 4.966 141.853 2.676 141.692C-0.447 141.472 -0.839 142.861 1.928 144.341C4.897 145.931 6.315 144.841 10.432 137.802C12.526 134.223 15.535 129.999 17.119 128.414C20.838 124.696 20.8 121.966 17 119.721C13.454 117.626 13.377 117.254 16 114.88C20.152 111.123 17.471 106.873 11.397 107.582C8.144 107.962 7.663 107.71 6.778 105.172C5.325 101.006 0 98.5499 0 102.047ZM124.654 103.929C128.144 105.881 131 107.962 131 108.553C131 110.654 121.476 125.329 120.096 125.354C119.324 125.368 115.809 123.768 112.285 121.797C105.891 118.221 105.882 118.209 107.491 115.753C108.378 114.399 110.478 110.949 112.157 108.086C117.503 98.9719 116.429 99.3289 124.654 103.929ZM180.521 104.925C176.535 108.13 174.763 106.354 178.617 103.016C180.546 101.345 181.831 100.852 182.5 101.524C183.168 102.196 182.511 103.325 180.521 104.925ZM228 107.935V114.49L223.25 114.185L218.5 113.88L218.69 108.38C218.795 105.355 218.907 102.542 218.94 102.13C218.973 101.718 221.025 101.38 223.5 101.38H228V107.935ZM240.798 107.63L240.5 113.88L235.75 114.185L231 114.49V107.935V101.38H236.048H241.095L240.798 107.63ZM292.75 101.955C292.337 102.372 292 103.988 292 105.547C292 108.847 291.876 108.884 287.848 106.802C284.947 105.301 284.677 105.335 282.398 107.476C281.079 108.715 279.99 110.888 279.977 112.304C279.965 113.721 278.39 117.784 276.477 121.334C272.657 128.423 272.27 130.529 274.45 132.339C277.924 135.221 294 143.079 294 141.894C294 141.195 292.65 140.063 291 139.38C287.315 137.854 287.314 138.001 291.074 131.06C295.653 122.605 294.264 120.761 289.55 129.037L285.599 135.971L280.3 133.1C274.053 129.717 274.293 130.69 277.959 123.601C282.659 114.513 282.064 114.823 287.908 118.418C290.763 120.175 293.367 121.347 293.693 121.021C294.744 119.969 292.186 117.809 287.032 115.395C281.532 112.819 281.385 112.603 283.319 109.958C284.582 108.232 284.82 108.248 288.916 110.337C294.104 112.984 294.189 112.915 293.806 106.399C293.638 103.537 293.163 101.537 292.75 101.955ZM187.686 106.554C190.485 109.184 190.586 110.54 188.145 112.749C185.915 114.767 183.694 114.088 181.482 110.711C179.956 108.384 179.963 108.079 181.577 106.295C183.798 103.84 184.844 103.884 187.686 106.554ZM15.791 111.514C16.142 113.361 10.902 115.663 8.472 114.731C6.298 113.897 6.684 111.841 9.25 110.581C12.302 109.083 15.412 109.527 15.791 111.514ZM12.055 119.571C18.533 123.049 18.614 123.158 16.68 125.804C15.428 127.515 15.036 127.442 9.18 124.393C2.397 120.863 2.565 121.062 4.035 118.314C5.351 115.857 5.046 115.809 12.055 119.571ZM55.821 121.687C55.095 122.406 52.7 123.868 50.5 124.937C45.404 127.413 45.248 128.615 48.977 136.672C52.719 144.757 52.527 144.636 58.023 142.38C60.485 141.369 63.77 140.264 65.321 139.924C67.848 139.371 68.075 138.997 67.492 136.344C66.958 133.915 67.124 133.49 68.412 133.985C70.898 134.939 71.693 131.368 69.417 129.474C68.259 128.511 67.632 126.944 67.835 125.515C68.305 122.19 66.726 120.921 63.961 122.401C62.089 123.403 61.554 123.334 60.804 121.994C59.712 120.043 57.614 119.914 55.821 121.687ZM60.915 125.567C62.457 129.99 60.645 131.528 58.585 127.545C56.631 123.765 56.582 122.38 58.402 122.38C59.173 122.38 60.304 123.814 60.915 125.567ZM65.562 127.08C65.097 128.291 64.643 128.423 63.81 127.59C62.976 126.756 63.04 126.036 64.056 124.813C65.607 122.944 66.584 124.415 65.562 127.08ZM56.877 128.009C58.282 131.093 58.413 130.892 53.733 132.847C50.285 134.288 50.008 134.264 49.035 132.445C47.371 129.336 47.817 127.838 50.75 126.679C54.936 125.025 55.581 125.166 56.877 128.009ZM140.245 129.88C140.608 131.778 140.3 132.38 138.968 132.38C136.961 132.38 135.945 134.34 136.555 137.034C136.785 138.049 137.115 140.69 137.288 142.903C137.46 145.116 137.943 147.479 138.36 148.153C139.195 149.505 154.547 149.936 155.333 148.63C155.581 148.218 155.945 144.505 156.142 140.38C156.476 133.387 156.358 132.86 154.398 132.58C152.757 132.346 152.399 131.743 152.765 129.83C153.281 127.13 151.401 126.56 147.995 128.383C146.743 129.053 145.916 129.053 145.502 128.383C145.161 127.831 143.731 127.38 142.324 127.38C140.136 127.38 139.836 127.74 140.245 129.88ZM146 131.489C146 133.269 142.542 131.957 142.172 130.036C141.872 128.476 142.121 128.375 143.911 129.332C145.06 129.947 146 130.918 146 131.489ZM150.655 130.837C150.015 132.503 147 132.993 147 131.43C147 130.399 150.241 128.288 150.865 128.912C151.075 129.122 150.981 129.988 150.655 130.837ZM68.559 130.909C70.439 132.39 70.423 132.43 68.078 132.159C66.746 132.006 65.471 131.318 65.245 130.63C64.685 128.929 66.208 129.057 68.559 130.909ZM190.806 131.906C189.88 133.939 189.982 135.119 191.327 137.94C192.247 139.87 193 141.548 193 141.671C193 141.794 190.894 141.727 188.321 141.522C184.675 141.232 183.35 141.549 182.321 142.956C180.776 145.069 180.543 152.98 182 153.88C182.576 154.236 183 159.545 183 166.404C183 177.166 183.186 178.409 184.941 179.348C186.009 179.92 194.935 180.679 204.778 181.036L222.674 181.684L224.337 179.309C225.623 177.474 226 174.631 226 166.78C226 158.973 226.347 156.337 227.5 155.38C228.455 154.587 229 152.377 229 149.293C229 143.558 227.55 142.38 220.493 142.38H215.855L217.927 139.745C224.142 131.844 215.786 126.041 207.537 132.53L204.98 134.541L201.913 131.96C197.712 128.425 192.404 128.399 190.806 131.906ZM64.559 134.495C65.549 136.409 65.813 137.967 65.243 138.537C64.06 139.72 62.384 137.757 61.472 134.124C60.521 130.335 62.533 130.577 64.559 134.495ZM200.077 134.303C202.981 137.207 203.887 140.714 202.029 141.862C200.31 142.924 195.319 139.565 194.045 136.488C191.72 130.875 195.338 129.564 200.077 134.303ZM60.524 136.577C61.12 138.99 60.794 139.439 57.418 140.85C53.326 142.56 52.46 142.196 51.537 138.38C51.012 136.21 51.431 135.669 54.716 134.28C58.958 132.487 59.575 132.731 60.524 136.577ZM217 134.88C217 137.87 214.039 141.081 210.452 141.981C206.939 142.863 205.473 141.262 207.024 138.237C209.954 132.527 217 130.156 217 134.88ZM146 135.88C146 136.963 144.889 137.38 142 137.38C139.111 137.38 138 136.963 138 135.88C138 134.797 139.111 134.38 142 134.38C144.889 134.38 146 134.797 146 135.88ZM155.756 135.63C155.302 137.014 150.663 137.848 148.352 136.962C145.711 135.948 148.014 134.38 152.142 134.38C154.914 134.38 156.039 134.769 155.756 135.63ZM146 143.443V148.507L142.75 148.193C139.634 147.893 139.487 147.685 139.195 143.13L138.89 138.38H142.445H146V143.443ZM154.806 143.097C155.082 146.898 154.86 147.377 152.558 147.955C148.428 148.991 147 147.867 147 143.578C147 138.856 147.584 138.203 151.464 138.583C154.261 138.857 154.524 139.212 154.806 143.097ZM95.63 141.903C95.152 143.147 94.691 143.204 93.104 142.213C91.07 140.942 88 142.397 88 144.631C88 145.185 86.361 147.452 84.358 149.669L80.716 153.7L86.759 159.54C90.082 162.752 93.408 165.36 94.15 165.335C94.893 165.31 97.901 163.102 100.835 160.429C106.081 155.65 106.143 155.528 104.552 153.1C103.014 150.752 103.039 150.603 105.072 150.071C107.694 149.386 107.165 147.294 103.963 145.684C102.655 145.026 101.242 143.564 100.824 142.434C99.938 140.039 96.481 139.685 95.63 141.903ZM99 144.08C99 146.091 98.711 146.491 97.867 145.647C97.244 145.024 97.005 143.809 97.336 142.947C98.251 140.562 99 141.071 99 144.08ZM243.655 144.209C242.745 145.215 242 146.949 242 148.064C242 149.494 241.043 150.364 238.75 151.017C234.372 152.265 233.479 156.96 237.43 157.952C239.951 158.584 239.963 158.634 238.302 161.446C236.707 164.146 236.716 164.409 238.463 166.339C239.479 167.462 240.803 168.388 241.405 168.397C242.007 168.406 244.651 170.431 247.279 172.897C249.908 175.363 252.642 177.38 253.356 177.38C255.013 177.38 270 162.032 270 160.335C270 159.634 267.637 156.52 264.75 153.414C261.863 150.308 258.706 146.767 257.736 145.546C255.78 143.082 252.819 143.803 251.575 147.046C251.023 148.484 250.594 148.241 248.972 145.574C246.732 141.89 245.938 141.687 243.655 144.209ZM94.93 145.806C98.324 149.419 96.472 151.206 92.89 147.775C91.301 146.252 90 144.64 90 144.193C90 142.557 92.711 143.444 94.93 145.806ZM200.616 145.38C203.778 145.38 203.933 145.551 203.806 148.914L203.673 152.448L194.087 152.164C184.914 151.892 184.486 151.78 184.171 149.557C183.491 144.755 184.522 144.045 191.169 144.74C194.537 145.092 198.789 145.38 200.616 145.38ZM226 149.38V153.38H216.559C206.176 153.38 206.021 153.305 206.733 148.63L207.227 145.38H216.613H226V149.38ZM247.756 147.958C248.089 150.466 246.527 152.824 245.112 151.949C243.889 151.193 243.597 147.116 244.688 146.026C245.834 144.88 247.484 145.919 247.756 147.958ZM104.134 148.646C103.584 149.196 102.329 149.337 101.345 148.959C99.898 148.404 99.82 148.109 100.937 147.419C102.789 146.274 105.475 147.305 104.134 148.646ZM257.503 147.386C257.845 147.939 256.449 150.437 254.4 152.937C251.112 156.949 250.501 157.309 249.196 156.004C247.891 154.699 248.096 154.047 250.942 150.453C254.125 146.434 256.29 145.422 257.503 147.386ZM92.139 149.323L94.5 151.266L91.241 154.562C86.14 159.723 81.118 155.077 86.084 149.791C88.819 146.879 89.14 146.854 92.139 149.323ZM104 155.567C104 157.203 101.289 156.316 99.07 153.954C95.676 150.341 97.528 148.554 101.11 151.985C102.699 153.508 104 155.12 104 155.567ZM33.687 154.185C32.209 155.727 31 157.496 31 158.115C31 158.895 30.06 158.971 27.932 158.361C20.903 156.345 16.935 162.142 22.74 165.946L25.481 167.741L22.202 169.079C20.399 169.815 18.664 171.092 18.348 171.917C17.604 173.855 19.766 179.076 21.605 179.782C22.387 180.082 24.538 183.644 26.385 187.698C28.233 191.751 30.417 195.326 31.239 195.642C33.269 196.421 56.859 185.512 58.081 183.229C58.819 181.849 58.194 179.567 55.508 173.83C53.557 169.662 52.189 165.883 52.468 165.431C53.264 164.143 51.016 158.6 49.455 158.001C48.682 157.704 46.463 158.124 44.525 158.934L41 160.407V156.929C41 154.513 40.409 153.134 39.066 152.415C36.52 151.053 36.765 150.972 33.687 154.185ZM263.379 155.069C268.766 159.891 268.781 159.979 264.907 163.976L261.589 167.4L256.799 162.682L252.01 157.965L255.201 154.672C259.092 150.658 258.414 150.625 263.379 155.069ZM243.714 154.757C243.123 156.561 237 156.798 237 155.017C237 154.197 237.787 153.358 238.75 153.152C241.37 152.59 244.131 153.483 243.714 154.757ZM98.44 155.314C100.119 157.169 100.074 157.394 97.355 160.801L94.52 164.355L92.053 161.888L89.586 159.421L92.48 156.401C95.892 152.84 96.157 152.791 98.44 155.314ZM39 156.769C39 159.756 35.733 163.951 34.162 162.98C32.688 162.069 32.687 160.16 34.161 156.927C35.676 153.601 39 153.493 39 156.769ZM203 166.321C203 172.339 202.662 177.439 202.25 177.655C201.838 177.87 198.012 177.848 193.75 177.604L186 177.161V166.271V155.38H194.5H203V166.321ZM223.889 156.991C224.102 157.174 223.877 161.949 223.389 167.602L222.5 177.88L214.25 178.17L206 178.461V167.587C206 161.607 206.282 156.432 206.626 156.088C207.229 155.484 223.098 156.315 223.889 156.991ZM248.567 157.489C248.945 158.1 247.449 160.401 245.235 162.615C239.261 168.589 236.544 166.247 242.104 159.915C245.278 156.299 247.351 155.521 248.567 157.489ZM29.066 161.415C32.071 163.023 31.48 165.38 28.071 165.38C24.989 165.38 21.583 162.863 22.55 161.299C23.308 160.073 26.669 160.133 29.066 161.415ZM50.02 162.418C51.016 164.278 50.533 164.717 44.448 167.476C40.783 169.138 37.674 170.359 37.54 170.189C34.769 166.692 35.155 165.872 40.819 163.216C47.82 159.933 48.652 159.861 50.02 162.418ZM255.846 164.283C260.624 168.48 260.548 169.832 255.311 173.747L252.814 175.614L248.41 171.292L244.006 166.969L247.199 163.675C251.081 159.67 250.552 159.633 255.846 164.283ZM34.393 168.962C35.453 171.723 35.126 172.064 28.784 174.814C22.929 177.354 22.494 177.408 21.284 175.754C19.387 173.16 19.535 172.951 25.25 170.17C31.52 167.119 33.581 166.846 34.393 168.962ZM53.042 173.973C54.669 177.599 56 181.144 56 181.85C56 183.433 46.031 187.858 45.054 186.71C43.978 185.445 38.772 173.269 39.16 172.926C39.566 172.565 49.372 167.494 49.792 167.427C49.952 167.401 51.415 170.347 53.042 173.973ZM141.975 174.91C141.005 176.079 140.971 177.021 141.832 178.91C142.855 181.156 142.744 181.38 140.601 181.38C136.881 181.38 135.412 183.864 136.823 187.767C137.47 189.557 138 193.787 138 197.166C138 202.226 138.343 203.493 139.943 204.349C142.559 205.749 162.037 204.938 162.994 203.389C163.86 201.989 165.074 183.308 164.373 182.175C164.103 181.738 162.559 181.38 160.941 181.38C158.045 181.38 157.043 180.089 159 178.88C163.019 176.396 157.346 172.633 152.984 174.889C150.249 176.303 149.732 176.306 147.752 174.919C144.983 172.979 143.579 172.977 141.975 174.91ZM39.785 180.899C43.823 189.087 43.864 188.753 38.511 191.27C31.511 194.56 31.403 194.483 26.366 182.651L24.991 179.423L29.746 176.948C36.234 173.571 36.157 173.541 39.785 180.899ZM147.999 177.878C148.735 179.253 149.014 180.699 148.62 181.093C147.474 182.239 144.53 179.874 144.18 177.528C143.735 174.533 146.336 174.772 147.999 177.878ZM157 177.18C157 179.286 155.155 181.38 153.3 181.38C151.504 181.38 151.673 179.399 153.655 177.209C155.755 174.889 157 174.878 157 177.18ZM82.2 181.58C80.544 183.236 80.698 186.504 82.557 189.157C84.08 191.332 84.035 191.38 80.491 191.38C73.447 191.38 70.517 196.513 74.532 201.821C75.573 203.198 76 206.41 76 212.871C76 218.622 76.442 222.422 77.2 223.18C78.465 224.445 107.325 224.96 110.418 223.773C111.711 223.277 112 221.382 112 213.395C112 205.93 112.354 203.331 113.5 202.38C115.23 200.945 115.476 196.138 113.965 193.314C113.148 191.789 111.848 191.38 107.81 191.38C102.913 191.38 102.762 191.3 104.345 189.551C110.092 183.201 102.023 177.357 95.926 183.454L93.903 185.477L90.875 182.928C87.62 180.19 84.133 179.647 82.2 181.58ZM277.449 182.463C277.081 183.058 274.804 184.392 272.39 185.427C267.044 187.719 266.901 189.001 270.991 198.02C274.252 205.213 274.084 205.147 282 202.343C290.27 199.413 290.081 199.552 289.414 196.891C288.944 195.019 289.177 194.38 290.333 194.38C292.93 194.38 293.448 192.161 291.264 190.393C289.799 189.206 289.356 187.967 289.719 186.067C290.324 182.907 287.854 181.426 285.39 183.471C284.06 184.575 283.654 184.512 282.854 183.083C281.788 181.178 278.477 180.799 277.449 182.463ZM91.077 186.748C92.191 188.58 92.585 190.195 92.049 190.731C90.56 192.22 86.458 190.604 85.051 187.974C81.944 182.169 87.594 181.019 91.077 186.748ZM103.841 184.802C104.306 187.205 100.172 191.38 97.326 191.38C93.936 191.38 94.341 188.112 98.126 184.928C101.511 182.079 103.305 182.04 103.841 184.802ZM282.56 185.862C283.961 188.463 284.148 189.632 283.299 190.481C282.45 191.33 281.646 190.607 280.124 187.623C278.26 183.969 278.225 182.38 280.009 182.38C280.381 182.38 281.529 183.947 282.56 185.862ZM149.814 185.63C150.101 187.141 149.318 187.38 144.073 187.38C138.617 187.38 138 187.172 138 185.33C138 182.485 149.269 182.771 149.814 185.63ZM163 185.38C163 187.138 162.333 187.38 157.5 187.38C152.667 187.38 152 187.138 152 185.38C152 183.622 152.667 183.38 157.5 183.38C162.333 183.38 163 183.622 163 185.38ZM288 185.821C288 187.414 286.186 188.899 285.31 188.023C284.487 187.201 285.771 184.38 286.969 184.38C287.536 184.38 288 185.028 288 185.821ZM279 190.411C279 192.069 275.175 194.38 272.432 194.38C271.079 194.38 268.139 189.733 269.088 189.093C269.314 188.94 271.075 188.085 273 187.192C276.808 185.426 279 186.601 279 190.411ZM149.798 196.13L150.095 202.38H145.048H140V195.825V189.27L144.75 189.575L149.5 189.88L149.798 196.13ZM162 195.88V202.38H157H152V195.88V189.38H157H162V195.88ZM290.541 191.447C290.904 192.033 290.995 192.719 290.743 192.97C290.046 193.668 287 192.287 287 191.273C287 190.021 289.743 190.156 290.541 191.447ZM286.487 195.002C288.329 199.412 288.328 199.38 286.621 199.38C284.986 199.38 282.521 193.964 283.463 192.44C284.481 190.792 284.863 191.116 286.487 195.002ZM112 197.459V200.38H103.5H95V197.463C95 193.871 95.197 193.803 104.477 194.209L112 194.538V197.459ZM282.206 196.391L283.913 199.39L280.334 200.885C275.741 202.804 275.28 202.772 274.035 200.446C272.464 197.509 272.726 196.879 276.25 195.125C280.513 193.004 280.247 192.947 282.206 196.391ZM93 197.38V200.38H84.5H76V197.38V194.38H84.5H93V197.38ZM204.75 200.943C197.191 205.896 196.982 206.418 200.5 211.595C201.875 213.618 203 215.883 203 216.627C203 219.043 205.124 220.384 207.196 219.275C208.694 218.473 209.467 218.735 210.928 220.54C212.893 222.966 216 221.875 216 218.758C216 217.95 217.048 217.38 218.531 217.38C221.758 217.38 222.966 214.559 220.509 212.763C218.856 211.554 218.841 211.378 220.347 210.801C222.769 209.871 222.37 207.553 219.25 204.431C217.738 202.918 215.691 200.488 214.703 199.03C212.459 195.72 212.828 195.649 204.75 200.943ZM215.404 202.333L217.327 205.625L214.914 207.48C213.586 208.501 212.275 209.342 212 209.351C211.241 209.374 207 202.903 207 201.721C207 200.536 211.003 198.394 212.491 198.782C213.036 198.924 214.347 200.522 215.404 202.333ZM92.788 212.63L92.5 221.88L88.544 222.203C86.368 222.38 83.106 222.247 81.294 221.907L78 221.289V212.335V203.38H85.538H93.075L92.788 212.63ZM110 212.361C110 222.629 109.754 222.879 100.345 222.199L95.5 221.849L95.212 212.614L94.925 203.38H102.462H110V212.361ZM207.731 206.849L209.962 210.293L207.758 211.837C204.846 213.877 204.166 213.794 201.944 211.13C199.578 208.295 199.523 206.463 201.75 204.772C204.387 202.771 205.293 203.085 207.731 206.849ZM218.139 210.451C215.65 212.485 213 213.007 213 211.463C213 210.959 214.238 209.639 215.75 208.53C219.38 205.869 221.581 207.638 218.139 210.451ZM252.807 208.13C251.98 209.093 251.031 210.651 250.697 211.594C250.189 213.029 249.608 213.139 247.116 212.271C241.154 210.192 237.427 215.741 242.004 219.884C243.996 221.687 243.991 221.707 241.113 223.457C239.521 224.426 237.926 225.691 237.568 226.27C236.821 227.478 239.611 233.38 240.929 233.38C241.412 233.38 243.484 236.954 245.535 241.323C247.585 245.692 249.91 249.515 250.701 249.819C251.493 250.123 256.047 248.529 260.82 246.276C265.594 244.024 271.192 241.501 273.259 240.669C278.468 238.572 278.805 236.111 275.022 227.77C273.304 223.98 272.095 220.127 272.335 219.207C272.876 217.139 269.49 211.367 267.765 211.415C267.069 211.435 265.375 212.094 264 212.88C260.583 214.833 259.756 214.725 260.488 212.418C262.022 207.586 256.109 204.285 252.807 208.13ZM258.219 211.421C257.81 215.005 254.25 218.381 252.99 216.38C251.248 213.613 254.069 208.033 256.908 208.628C257.944 208.845 258.402 209.821 258.219 211.421ZM14.362 210.88C14.045 211.705 14.045 213.055 14.362 213.88C14.78 214.97 14.245 215.38 12.408 215.38H9.879L10.516 222.63C11.424 232.958 10.871 232.38 19.846 232.38C29.355 232.38 29.673 232.087 30.143 222.88C30.485 216.177 30.4 215.866 28.155 215.548C26.455 215.307 25.94 214.719 26.282 213.409C27.12 210.204 25.508 208.827 22.514 210.191C20.694 211.021 19.309 211.08 18.009 210.385C15.509 209.047 15.041 209.111 14.362 210.88ZM19 214.086C19 216.449 16.532 214.944 16.154 212.35C15.852 210.277 16.01 210.144 17.404 211.3C18.282 212.029 19 213.282 19 214.086ZM25 212.258C25 213.561 22.417 215.464 21.667 214.713C20.916 213.963 22.819 211.38 24.122 211.38C24.605 211.38 25 211.775 25 212.258ZM212 213.664C212 215.514 206.318 218.703 205.469 217.329C205.101 216.734 204.957 216.128 205.15 215.982C209.903 212.384 212 211.674 212 213.664ZM218.418 213.987C220.653 214.844 220.384 216.38 218 216.38C216.889 216.38 216 215.713 216 214.88C216 213.197 216.183 213.129 218.418 213.987ZM248.453 215.541C252.128 217.215 251.703 219.38 247.7 219.38C244.265 219.38 242 217.909 242 215.68C242 214.068 245.074 214.001 248.453 215.541ZM269.344 216.586C269.661 217.8 269.826 218.858 269.71 218.938C269.595 219.018 266.81 220.297 263.522 221.78C257.89 224.322 257.47 224.376 256.259 222.719C254.385 220.157 254.97 219.434 261.034 216.818C267.859 213.874 268.629 213.853 269.344 216.586ZM214.426 218.713C214.074 219.63 213.384 220.38 212.893 220.38C211.847 220.38 211.686 217.028 212.683 216.03C213.808 214.905 215.115 216.917 214.426 218.713ZM19 217.88C19 218.963 17.889 219.38 15 219.38C8.841 219.38 10.014 216.638 16.25 216.459C18.063 216.407 19 216.891 19 217.88ZM28.756 218.149C29.037 218.99 27.871 219.38 25.083 219.38C21.276 219.38 20.114 218.6 21.643 217.07C22.723 215.99 28.32 216.839 28.756 218.149ZM56.33 221.227C55.983 222.553 55.177 222.945 53.47 222.619C51.519 222.246 50.969 222.678 50.404 225.022C50.026 226.594 48.849 229.611 47.788 231.727C45.23 236.832 45.839 237.916 53.232 241.413C61.217 245.191 62.135 245.141 64.471 240.805C65.53 238.838 67.207 236.294 68.198 235.152C70.462 232.541 70.449 232.096 68.044 229.92C66.311 228.351 66.258 227.98 67.578 226.659C69.518 224.72 67.75 222.38 64.346 222.38C63.021 222.38 61.678 221.705 61.362 220.88C60.549 218.762 56.909 219.013 56.33 221.227ZM61 224.654C61 226.671 58.478 224.536 58.221 222.302C57.95 219.957 57.99 219.941 59.471 221.821C60.312 222.889 61 224.164 61 224.654ZM19 226.207C19 231.001 18.98 231.031 16 230.593C13.19 230.181 13 229.876 13 225.767C13 221.559 13.123 221.38 16 221.38C18.919 221.38 19 221.51 19 226.207ZM28 225.88C28 230.356 27.981 230.38 24.5 230.38C21.109 230.38 21 230.261 21 226.547C21 221.963 21.47 221.38 25.167 221.38C27.858 221.38 28 221.605 28 225.88ZM175.927 227.88C174.306 231.455 172.607 234.38 172.151 234.38C170.946 234.38 168.866 239.354 169.584 240.517C169.92 241.059 171.335 241.937 172.729 242.467C175.149 243.387 175.186 243.517 173.544 245.331C170.661 248.517 171.915 250.836 176.709 251.185C179.821 251.412 181.059 251.991 181.518 253.436C183.027 258.191 189 257.311 189 252.334C189 250.738 189.502 250.53 192.101 251.05C195.508 251.732 196.958 250.438 196.985 246.696C196.993 245.495 198.183 241.785 199.628 238.452C202.867 230.985 202.715 230.749 191.227 225.365C179.77 219.996 179.481 220.044 175.927 227.88ZM253.696 223.63C254.641 225.72 254.254 226.089 248.276 228.808C242.897 231.256 241.69 231.502 240.935 230.308C239.236 227.625 240.002 226.511 245.25 224.029C251.856 220.905 252.452 220.877 253.696 223.63ZM272.901 228.983C274.601 232.614 275.749 235.976 275.454 236.454C275.019 237.158 266.464 241.38 265.472 241.38C264.859 241.38 260.662 233.646 259.501 230.38L258.258 226.88L262.879 224.713C269.421 221.646 269.479 221.67 272.901 228.983ZM186.195 225.156L189.89 226.88L187.235 232.38C185.774 235.405 184.453 238.063 184.3 238.286C184.086 238.598 176.863 235.832 175.202 234.803C174.492 234.362 180.519 223.383 181.458 223.406C182.031 223.421 184.163 224.208 186.195 225.156ZM55.851 225.478C58.773 226.497 60.324 229.38 57.95 229.38C55.88 229.38 50.947 226.275 51.526 225.337C52.255 224.158 52.046 224.152 55.851 225.478ZM67 225.273C67 226.447 64.076 227.545 62.893 226.814C62.384 226.499 62.226 225.823 62.543 225.311C63.278 224.121 67 224.09 67 225.273ZM119.253 229.748C117.189 231.6 113.588 234.084 111.25 235.268C106.43 237.709 105.717 240.471 108.867 244.495C109.893 245.807 112.121 249.636 113.817 253.004C117.71 260.732 118.569 261.012 125.536 256.816C128.675 254.926 132.258 253.38 133.499 253.38C136.923 253.38 138.553 250.889 137.147 247.803C135.65 244.518 135.551 244.72 139 244.03C143.498 243.13 141.867 236.38 137.152 236.38C136.394 236.38 136.181 235.506 136.566 233.973C137.907 228.631 133.705 225.634 130.179 229.418L128.28 231.456L126.617 228.918C124.462 225.63 123.752 225.71 119.253 229.748ZM200 232.452C200 233.767 195.929 242.306 195.04 242.855C193.835 243.6 187 240.292 187 238.964C187 238.389 187.967 235.586 189.149 232.735L191.297 227.55L195.649 229.664C198.042 230.827 200 232.082 200 232.452ZM258.21 245.069C251.512 248.181 251.391 248.127 247.675 240.325L244.314 233.269L249.907 230.455L255.5 227.641L259.21 235.261L262.92 242.88L258.21 245.069ZM54.86 230.239C57.185 232.028 57.194 232.105 55.483 235.467C54.527 237.344 53.636 239.009 53.502 239.167C53.035 239.719 48 237.052 48 236.253C48 234.98 51.309 228.378 51.935 228.402C52.246 228.414 53.562 229.241 54.86 230.239ZM64.846 229.953C67.959 231.506 68.599 232.448 67.373 233.673C66.87 234.177 61.614 232.1 60.15 230.819C59.792 230.506 60.886 228.38 61.405 228.38C61.563 228.38 63.112 229.088 64.846 229.953ZM127.891 234.571C130.075 238.236 130.076 238.269 128.093 239.33C125.344 240.802 119.97 232.325 122.058 229.81C123.547 228.016 124.399 228.711 127.891 234.571ZM134 232.88C134 235.575 132.303 237.083 130.876 235.656C129.642 234.422 131.623 229.029 132.998 229.879C133.549 230.219 134 231.57 134 232.88ZM62.264 233.63C63.494 234.318 64.618 234.923 64.763 234.976C65.164 235.123 62.277 241.78 61.461 242.59C61.068 242.981 59.451 242.63 57.868 241.811L54.989 240.323L57.015 236.351C59.296 231.879 59.21 231.923 62.264 233.63ZM122.049 237.477C123.199 239.73 123.996 241.679 123.82 241.808C123.644 241.937 121.3 243.246 118.611 244.718C113.192 247.685 112.067 247.369 109.964 242.292C108.611 239.026 109.739 237.605 115.979 234.711C119.694 232.989 119.78 233.028 122.049 237.477ZM182.985 241.272C182.92 243.854 181.192 244.104 176.738 242.176C172.397 240.297 170.774 237.94 172.578 236.135C173.225 235.488 183.009 240.318 182.985 241.272ZM138.8 239.58C140.626 241.406 140.244 242.38 137.7 242.38C135.425 242.38 133 240.729 133 239.18C133 237.933 137.461 238.241 138.8 239.58ZM134.073 246.187C136.086 249.861 136.217 250.631 134.966 251.422C132.774 252.808 132.708 252.756 129.854 247.363C127.47 242.857 127.371 242.271 128.854 241.434C130.778 240.347 130.969 240.521 134.073 246.187ZM190.98 243.989C194.765 245.503 196.11 247.576 194.111 248.812C193.622 249.114 190.918 248.404 188.102 247.234C183.996 245.527 183.206 244.836 184.114 243.743C185.549 242.013 186.091 242.032 190.98 243.989ZM127.929 247.467C130.461 251.972 130.487 251.919 123.794 255.732L119.088 258.413L117.888 256.146C117.229 254.9 116.064 252.916 115.3 251.738C113.99 249.717 114.21 249.422 119.206 246.51C125.791 242.672 125.197 242.607 127.929 247.467ZM180.473 246.336C181.443 247.906 176.363 250.683 174.465 249.62C172.943 248.769 172.944 248.578 174.482 247.04C176.307 245.216 179.545 244.835 180.473 246.336ZM185.626 249.931C186.847 251.796 186.999 252.781 186.191 253.589C184.615 255.165 182 252.774 182 249.758C182 246.66 183.53 246.733 185.626 249.931ZM70.105 249.294C69.122 249.916 68.87 251.375 69.252 254.225L69.795 258.271L66.148 258.576L62.5 258.88L62.853 271.88C63.069 279.826 63.652 285.345 64.353 286.075C65.624 287.399 91.875 288.193 93.858 286.968C94.559 286.535 95.012 283.098 95.032 278.071C95.054 272.459 95.526 269.269 96.532 267.939C99.929 263.447 97.703 259.38 91.847 259.38H88.093L89.797 256.399C92.94 250.898 87.458 247.187 82.071 251.169L79.415 253.133L76.652 250.757C73.688 248.208 72.308 247.899 70.105 249.294ZM19.145 255.212C14.519 260.553 14.227 261.179 15.689 262.641C17.151 264.103 17.147 264.376 15.643 265.88C13.289 268.234 13.604 269.351 16.799 269.99C18.342 270.298 20.026 271.519 20.549 272.709C21.819 275.594 24.659 276.03 25.473 273.465C26.012 271.768 26.421 271.626 27.977 272.598C30.016 273.871 33 272.273 33 269.908C33 269.232 34.396 266.753 36.102 264.399L39.203 260.117L36.352 257.728C32.745 254.707 25.29 249.38 24.669 249.38C24.41 249.38 21.924 252.004 19.145 255.212ZM28.1 253.26L30.421 255.139L27.665 258.753C24.987 262.264 24.839 262.321 22.454 260.758C19.445 258.786 19.416 258.089 22.188 254.34C24.765 250.854 25.062 250.8 28.1 253.26ZM76.429 252.951C78.67 255.193 78.451 258.38 76.057 258.38C74.056 258.38 71 254.922 71 252.657C71 250.87 74.539 251.062 76.429 252.951ZM88.293 252.007C89.363 253.076 86.188 258.097 84.098 258.644C81.752 259.258 81 258.681 81 256.27C81 253.439 86.507 250.22 88.293 252.007ZM34.621 258.493L36.87 260.606L34.685 263.981C32.119 267.944 31.387 268.092 28.37 265.257L26.11 263.135L28.805 259.758C31.989 255.767 31.77 255.815 34.621 258.493ZM21.107 261.456C23.717 263.315 24.227 265.38 22.076 265.38C20.522 265.38 15.987 261.211 16.549 260.3C17.354 258.999 17.823 259.118 21.107 261.456ZM207.337 260.944C207.007 261.804 207.262 263.659 207.903 265.067C209.01 267.496 208.938 267.601 206.478 267.131C203.125 266.49 200.577 268.904 201.573 271.779C201.973 272.935 202.486 277.03 202.714 280.88C203.248 289.933 203.861 290.38 215.757 290.38C228.451 290.38 229 290.008 229 281.404C229 277.606 229.45 274.22 230 273.88C233.528 271.699 229.112 265.594 224.819 266.717C223.267 267.123 222.996 266.874 223.556 265.557C225.829 260.22 222.459 257.539 217.534 260.766C215.475 262.115 215.033 262.125 213.969 260.843C212.362 258.906 208.094 258.971 207.337 260.944ZM78.506 261.389C78.848 261.944 78.845 263.294 78.497 264.389C77.946 266.125 76.977 266.38 70.933 266.38H64V263.38V260.38H70.941C74.759 260.38 78.163 260.834 78.506 261.389ZM214.823 264.749C215.216 266.731 213.052 266.87 210.529 265.025C209.328 264.147 208.913 263.05 209.35 261.911C210.167 259.781 214.259 261.902 214.823 264.749ZM221.521 264.356C220.514 265.469 219.085 266.38 218.345 266.38C216.238 266.38 216.769 263.655 219.209 261.946C222.245 259.82 223.985 261.634 221.521 264.356ZM95.393 262.206C96.801 264.485 94.693 267.38 91.633 267.369C84.229 267.343 81 266.244 81 263.749C81 261.485 81.306 261.38 87.941 261.38C91.759 261.38 95.112 261.752 95.393 262.206ZM260.004 263.875C258.803 265.322 258.92 266.797 260.551 270.78C261.233 272.446 260.998 272.596 258.644 272.005C253.929 270.822 251.702 272.875 252.449 277.717C252.802 280.007 253.049 284.243 252.998 287.13C252.926 291.24 253.242 292.38 254.453 292.38C255.643 292.38 256 291.225 256 287.38V282.38H262.5H269V287.38C269 290.13 269.45 292.38 270 292.38C270.55 292.38 271 290.13 271 287.38V282.38L275.25 282.394C282.995 282.419 284 283.062 284 287.997C284 290.407 284.45 292.38 285 292.38C285.55 292.38 286 290.157 286 287.439C286 284.721 286.45 282.22 287 281.88C288.396 281.017 288.252 275.032 286.8 273.58C286.14 272.92 283.82 272.38 281.645 272.38C277.877 272.38 277.768 272.294 279.345 270.551C281.446 268.23 281.466 265.012 279.39 263.289C278.025 262.156 277.169 262.287 273.773 264.147C269.768 266.341 269.766 266.341 267.248 264.361C264.248 262 261.702 261.829 260.004 263.875ZM266.545 266.835C269.171 269.46 269.592 270.896 268.021 271.867C265.706 273.298 260.082 267.674 261.513 265.359C262.484 263.788 263.92 264.209 266.545 266.835ZM28.436 267.509C30.211 268.905 30.804 269.976 30.159 270.621C28.999 271.781 24.08 268.578 24.031 266.63C23.986 264.815 25.361 265.09 28.436 267.509ZM279 266.88C279 269.033 275.349 272.38 273 272.38C270.431 272.38 270.447 270.35 273.039 267.569C275.37 265.067 279 264.647 279 266.88ZM20.435 267.275C21.104 268.357 18.198 269.62 16.893 268.814C16.384 268.499 16.226 267.823 16.543 267.311C17.275 266.126 19.711 266.103 20.435 267.275ZM156.174 268.694C154.978 269.967 154 271.57 154 272.256C154 273.16 152.808 273.324 149.661 272.852C142.575 271.789 139.547 276.306 144.653 280.321C147.641 282.672 147.692 282.519 143.153 284.829C140.482 286.187 139.924 286.971 140.39 288.706C140.71 289.902 140.979 291.217 140.986 291.63C140.994 292.043 141.664 292.38 142.475 292.38C143.581 292.38 143.8 291.629 143.35 289.38C142.919 287.223 143.136 286.364 144.125 286.322C144.881 286.291 147.746 285.203 150.492 283.905C154.107 282.196 155.689 281.867 156.227 282.712C158.049 285.577 156.857 287.207 151.25 289.512C146.638 291.408 145.973 291.943 147.891 292.216C149.207 292.403 152.071 291.75 154.256 290.765C157.992 289.08 158.304 289.075 159.475 290.676C161.419 293.335 163.124 292.837 162.02 289.933C161.153 287.651 161.469 287.312 166.697 284.918C169.781 283.506 172.403 282.47 172.523 282.616C172.643 282.761 173.674 285.017 174.814 287.63C175.954 290.243 177.363 292.38 177.944 292.38C179.568 292.38 179.192 290.19 177 286.88C175.907 285.23 175.01 282.62 175.007 281.08C174.998 277.405 172.352 272.38 170.425 272.38C169.586 272.38 167.514 273.097 165.818 273.974C162.756 275.558 162.74 275.553 163.341 273.158C164.002 270.525 161.725 266.38 159.618 266.38C158.92 266.38 157.37 267.422 156.174 268.694ZM24 271.439C24 272.507 23.55 273.38 23 273.38C22.45 273.38 22 272.228 22 270.821C22 269.37 22.433 268.529 23 268.88C23.55 269.22 24 270.371 24 271.439ZM78 276.88V285.38H72.107C65.009 285.38 64.64 284.803 65.587 275.189L66.258 268.38H72.129H78V276.88ZM215 270.38C215 272.138 214.333 272.38 209.5 272.38C204.667 272.38 204 272.138 204 270.38C204 268.622 204.667 268.38 209.5 268.38C214.333 268.38 215 268.622 215 270.38ZM228 268.798C228 269.028 228.273 269.928 228.607 270.798C229.12 272.134 228.265 272.38 223.107 272.38C217.667 272.38 217 272.162 217 270.38C217 268.622 217.667 268.38 222.5 268.38C225.525 268.38 228 268.568 228 268.798ZM93.162 277.123C92.77 286.127 92.898 285.984 85.599 285.537L80 285.195V277.287V269.38L86.75 269.378L93.5 269.375L93.162 277.123ZM161 271.657C161 274.096 158.458 278.38 157.011 278.38C155.428 278.38 154.915 274.661 156.13 271.995C157.638 268.685 161 268.452 161 271.657ZM269 277.516V280.652L264.36 280.016C261.809 279.666 258.434 279.38 256.86 279.38C254.753 279.38 254 278.897 254 277.547C254 274.706 254.841 274.38 262.167 274.38H269V277.516ZM281.25 275.306C285.63 275.374 286 275.575 286 277.88C286 280.324 285.833 280.38 278.5 280.38C271.31 280.38 271 280.284 271 278.047C271 275.064 271.766 274.338 274.389 274.833C275.55 275.052 278.637 275.265 281.25 275.306ZM152.438 276.961C153.307 277.83 153.763 278.955 153.45 279.461C152.052 281.723 145 279.54 145 276.845C145 274.839 150.401 274.923 152.438 276.961ZM172 275.798C172 276.028 172.261 276.898 172.581 277.73C173.002 278.828 171.429 280.104 166.86 282.371C160.963 285.297 160.477 285.385 159.279 283.747C157.168 280.859 157.757 279.966 163.25 277.723C168.204 275.701 172 274.866 172 275.798ZM214.798 281.63L214.5 287.88H210H205.5L205.202 281.63L204.905 275.38H210H215.095L214.798 281.63ZM226.798 281.63L226.5 287.88H222H217.5L217.202 281.63L216.905 275.38H222H227.095L226.798 281.63Z" fill="black"/>
</svg>
